<svg id="Layer_1" data-name="Layer 1" xmlns="http://www.w3.org/2000/svg" viewBox="0 0 86 86"><defs><style>.cls-1{fill:#f2f4ff;}.cls-2{fill:none;stroke:#32459d;stroke-miterlimit:10;stroke-width:1.5px;}</style></defs><title>3M</title><circle class="cls-1" cx="43" cy="43" r="43"/><path class="cls-2" d="M55.24,25.42,52.9,43.69l-1.45-9.95q-.62-4.8-1.2-8.32H37.1V32a9.43,9.43,0,0,0-2.21-4.62q-2.47-2.73-9.47-2.73c-3.72,0-6.43.69-8.14,2s-2.56,3.84-2.56,7.57v3.34h9.76V34.31a7.12,7.12,0,0,1,.38-2.93,1.43,1.43,0,0,1,1.38-.69,1.46,1.46,0,0,1,1.32.65A5.73,5.73,0,0,1,28,34.05V36.2a7.8,7.8,0,0,1-.36,2.8,1.86,1.86,0,0,1-1.16,1.18,19.36,19.36,0,0,1-4.3.27v5.68A15,15,0,0,1,26,46.5a2.53,2.53,0,0,1,1.5,1.37,8.14,8.14,0,0,1,.5,3.28v2.71a16.12,16.12,0,0,1-.41,4.54,1.45,1.45,0,0,1-1.49.87,1.32,1.32,0,0,1-1.35-.69,10.28,10.28,0,0,1-.3-3.22V49H14.69v3.09c0,3.72.28,6.34.83,7.84A7.62,7.62,0,0,0,19,63.75a14.38,14.38,0,0,0,7.31,1.59A14.56,14.56,0,0,0,33,64a7.57,7.57,0,0,0,3.68-3.94c.16-.47.29-1,.42-1.43v5.91H46V38.73l3.72,25.81H56l3.58-26.41V64.54h8.89V25.42ZM36.66,44.82a6.12,6.12,0,0,0-3.31-2.45,8,8,0,0,0,3.14-2.7,9.41,9.41,0,0,0,.61-1.76v8A4.19,4.19,0,0,0,36.66,44.82Z"/></svg>