<svg id="Layer_1" data-name="Layer 1" xmlns="http://www.w3.org/2000/svg" viewBox="0 0 86 86"><defs><style>.cls-1{fill:#f2f4ff;}.cls-2,.cls-3,.cls-4{fill:none;stroke:#32459d;stroke-miterlimit:10;}.cls-2{stroke-width:1.5px;}.cls-4{stroke-width:0.75px;}</style></defs><title>Bubble Free</title><circle class="cls-1" cx="43" cy="43.04" r="43"/><circle class="cls-2" cx="27.86" cy="35.81" r="14.03"/><path class="cls-2" d="M42.57,35.43a4,4,0,0,0-.69,0,14.06,14.06,0,1,0-4.66,10.78,6.73,6.73,0,1,0,5.35-10.82Z"/><circle class="cls-2" cx="54.91" cy="61.58" r="10.6"/><circle class="cls-2" cx="58.38" cy="21.04" r="5.05"/><path class="cls-3" d="M16.89,36.88c-.37-8.29,5.83-10.61,5.89-10.63l.68,1.88-.34-.94.34.94c-.2.07-4.87,1.89-4.57,8.67Z"/><path class="cls-4" d="M55.1,20.76a2.79,2.79,0,0,1,2-2.83l.27,1a1.8,1.8,0,0,0-1.32,1.83Z"/></svg>