<svg id="Layer_1" data-name="Layer 1" xmlns="http://www.w3.org/2000/svg" viewBox="0 0 86 86"><defs><style>.cls-1{fill:#f2f4ff;}.cls-2,.cls-3{fill:none;stroke-miterlimit:10;}.cls-2{stroke:#0f2ddb;stroke-width:0.75px;}.cls-3{stroke:#32459d;stroke-width:1.5px;}.cls-4{fill:#32459d;}</style></defs><title>Heat</title><g id="Layer_4_copy_3" data-name="Layer 4 copy 3"><circle class="cls-1" cx="43" cy="43" r="43"/></g><g id="Layer_15" data-name="Layer 15"><path class="cls-2" d="M53.17,27.86c-4,5-.47,7.29-3.41,12.26,1.72-6.63-8.23-15.4-2.33-23.13-10.27,5.65-7.22,17-12,25.46,2.16-3.86-1.1-12.06-4.76-14.57,4.45,6.34-4.56,16.56-4.06,25.73.29,13.24,17.94,21,27.8,10.48C67.38,50.22,50.82,40.82,53.17,27.86Zm-15.64,30h0a.09.09,0,0,1,0-.07V57.6h0v-.15h0c.65-4.89,4.89-11.83,6.72-16.4-.15,5.66,7.23,12.72,2.51,18.28A21.25,21.25,0,0,0,51.46,55c1.12,15.42-15.07,15.39-13.93,2.94Z"/></g><g id="Layer_15-2" data-name="Layer 15"><path class="cls-3" d="M53.17,27.86c-4,5-.47,7.29-3.41,12.26,1.72-6.63-8.23-15.4-2.33-23.13-10.27,5.65-7.22,17-12,25.46,2.16-3.86-1.1-12.06-4.76-14.57,4.45,6.34-4.56,16.56-4.06,25.73.29,13.24,17.94,21,27.8,10.48C67.38,50.22,50.82,40.82,53.17,27.86Zm-15.64,30h0a.09.09,0,0,1,0-.07V57.6h0v-.15h0c.65-4.89,4.89-11.83,6.72-16.4-.15,5.66,7.23,12.72,2.51,18.28A21.25,21.25,0,0,0,51.46,55c1.12,15.42-15.07,15.39-13.93,2.94Z"/></g><path class="cls-4" d="M35.11,41.27a9.57,9.57,0,0,1-1.51,2.67,2.36,2.36,0,0,0,2.46-1.09,7.1,7.1,0,0,0,.57-1.11Z"/></svg>