<svg id="Layer_1" data-name="Layer 1" xmlns="http://www.w3.org/2000/svg" viewBox="0 0 86 86"><defs><style>.cls-1{fill:#f2f4ff;}.cls-2{fill:none;}.cls-2,.cls-3{stroke:#32459d;stroke-miterlimit:10;}.cls-3{fill:#32459d;stroke-width:0.25px;}</style></defs><title>Residue</title><g id="Layer_4_copy_3" data-name="Layer 4 copy 3"><ellipse class="cls-1" cx="43.01" cy="42.95" rx="39.57" ry="40.5"/></g><path class="cls-2" d="M67.89,50,38.37,17.8l-.3-.32-.22.05-.15,0A25.85,25.85,0,0,0,19.08,34.74a25.75,25.75,0,0,0,49,15.88l0-.09.07-.21Zm-.86.17a24.09,24.09,0,0,1-4.93.48,25.28,25.28,0,0,1-7.58-1.19,25,25,0,0,1-16.4-30.82ZM55,64.89A25,25,0,0,1,19.79,35a25.13,25.13,0,0,1,17.39-16.5l.21-.06c-.21.71-.38,1.42-.53,2.13A25.8,25.8,0,0,0,54.29,50.18a26.15,26.15,0,0,0,7.8,1.22,25.21,25.21,0,0,0,4.6-.39l.5-.09c-.13.36-.26.72-.41,1.08A24.81,24.81,0,0,1,55,64.89Z"/><path class="cls-3" d="M67.9,50l-.16-.18-.58-.62-.34-.38-.57-.62-.34-.37-.57-.63L65,46.84l-.56-.62-.35-.38-.57-.62-.34-.37-.57-.62-.35-.38-.56-.62-.35-.38-.57-.62-.34-.37-.57-.62-.35-.38-.57-.62-.34-.38L58,39.24l-.34-.37-.57-.62-.35-.38-.57-.62-.34-.37-.57-.63L55,35.88l-.57-.62L54,34.88l-.57-.62-.34-.37-.57-.62-.35-.38-.56-.62-.35-.38-.57-.62-.34-.37-.57-.62-.35-.38-.56-.62-.35-.38L48,28.28l-.34-.37-.57-.62-.35-.38-.57-.62-.34-.38-.57-.62-.34-.37-.57-.62L44,23.92l-.57-.62-.34-.37-.57-.63-.34-.37-.57-.62-.34-.37-.58-.63-.34-.37-.57-.62-.34-.38-.57-.62L38.51,18l-1.18.72c-.07.24-.13.47-.19.7s-.18.75-.26,1.13c0,0,0,0,0,.05,0,.2-.08.41-.11.61-.07.36-.12.71-.16,1.07s-.06.42-.08.63a8.93,8.93,0,0,0-.09,1c0,.2,0,.4,0,.6s0,.66,0,1,0,.39,0,.58,0,.63,0,.95,0,.38,0,.57.05.62.08.92,0,.36.07.54.08.59.14.89a4.89,4.89,0,0,0,.09.53c0,.29.11.57.18.86l.12.51c.07.28.14.55.22.83l.15.5c.08.27.17.54.26.81l.18.48c.09.27.19.52.3.78h0c.06.16.13.31.2.46a7.35,7.35,0,0,0,.34.76,3.82,3.82,0,0,0,.21.46c.08.17.17.35.26.52l.12.22c.07.15.15.3.23.44s.27.49.41.72l.27.42h0c.14.24.29.47.44.69a3.81,3.81,0,0,0,.29.41,7.63,7.63,0,0,0,.48.68,3.79,3.79,0,0,0,.3.4c.16.22.34.44.52.65s.21.26.33.39.36.42.56.63a3.92,3.92,0,0,0,.34.37c.19.21.39.41.6.61l.36.35c.21.2.43.39.65.58l.39.34c.23.19.46.38.69.55s.28.23.42.33.48.36.73.53l.45.3c.25.18.51.34.77.5s.32.2.49.29.54.32.82.46a5.12,5.12,0,0,0,.52.27l.88.43.56.25c.31.14.62.27.94.39l.6.22.9.31.12,0,.64.2,1.1.29.72.15c.4.09.8.16,1.2.23l.78.1,1.35.15.86,0h0l1,0h.55l1,0c.62,0,1.25-.09,1.87-.17.4-.05.8-.11,1.19-.18h.07l1.31-.81ZM38.09,18.78l.1-.06.58.62-1,.6C37.88,19.55,38,19.17,38.09,18.78Zm-.44,1.84,1.46-.9.57.62-2.24,1.38C37.5,21.35,37.57,21,37.65,20.62Zm-.3,1.73L40,20.71l.57.63L37.24,23.4C37.26,23.05,37.3,22.7,37.35,22.35ZM37.18,24l3.75-2.3.57.62L37.14,25C37.15,24.68,37.16,24.35,37.18,24Zm0,1.59,4.72-2.9.57.63-5.27,3.23C37.13,26.24,37.12,25.92,37.13,25.6Zm5.63-1.9.57.62-6.07,3.73c0-.31-.07-.61-.08-.92Zm-5.45,4.91,6.37-3.91.57.62-6.82,4.19C37.39,29.21,37.34,28.91,37.31,28.61ZM37.53,30l7.06-4.34.57.62L37.7,30.89A8.71,8.71,0,0,1,37.53,30Zm.29,1.38,7.68-4.72.57.62-8,4.94Q37.91,31.83,37.82,31.41Zm.35,1.34,8.25-5.06.56.62-8.55,5.25C38.33,33.29,38.25,33,38.17,32.75Zm.43,1.3,8.73-5.37.57.62-9,5.54C38.79,34.58,38.69,34.32,38.6,34.05Zm9.64-4.37.57.62-9.39,5.77h0l-.33-.76Zm-8.6,6.85,9.52-5.85.57.62-9.72,6C39.88,37,39.75,36.78,39.64,36.53Zm.6,1.18,9.83-6,.57.62-10,6.14Q40.44,38.07,40.24,37.71Zm.68,1.14L51,32.67l.57.62L41.36,39.55C41.2,39.32,41.05,39.08,40.92,38.85ZM41.65,40,51.9,33.67l.57.62L42.13,40.64C42,40.42,41.8,40.19,41.65,40ZM42.44,41l10.37-6.38.57.62L43,41.69C42.78,41.48,42.61,41.26,42.44,41Zm.85,1,10.44-6.41.57.62L43.86,42.7C43.66,42.49,43.47,42.29,43.29,42.07Zm.91,1,10.44-6.41.57.63-10.4,6.39C44.6,43.47,44.39,43.27,44.2,43.06Zm1,1,10.37-6.37.57.62L45.82,44.6Zm1,.91,10.24-6.28.56.62L46.92,45.49h0C46.68,45.31,46.46,45.13,46.23,44.93Zm1.11.88,10-6.17.57.62-9.88,6.07Zm1.2.83,9.75-6,.57.62-9.54,5.86Q48.93,46.9,48.54,46.64Zm1.27.77,9.4-5.77.57.62-9.13,5.6Q50.23,47.65,49.81,47.41Zm1.37.72,8.94-5.5.57.62-8.61,5.29C51.77,48.41,51.47,48.27,51.18,48.13Zm1.47.66L61,43.63l.56.62-8,4.9h0C53.29,49,53,48.92,52.65,48.79Zm1.88.68-.3-.1L62,44.63l.57.62-7.24,4.44C55,49.63,54.78,49.55,54.53,49.47Zm1.42.4,6.91-4.25.57.62-6.34,3.9Q56.52,50,56,49.87Zm1.88.41,6-3.66.56.62L59.1,50.46C58.68,50.42,58.25,50.35,57.83,50.28Zm2.07.27,4.79-2.94.57.63-3.91,2.4h0Q60.62,50.63,59.9,50.55Zm2.36.11,3.34-2,.57.62L64,50.59h0C63.39,50.64,62.83,50.66,62.26,50.66Zm2.82-.17,1.43-.88.53.57C66.39,50.31,65.74,50.42,65.08,50.49Z"/></svg>