<?xml version="1.0" encoding="UTF-8"?>
<!-- Generator: Adobe Illustrator 24.0.1, SVG Export Plug-In . SVG Version: 6.00 Build 0)  -->
<svg version="1.1" id="Layer_1" xmlns="http://www.w3.org/2000/svg" xmlns:xlink="http://www.w3.org/1999/xlink" x="0px" y="0px" viewBox="0 0 86 86" style="enable-background:new 0 0 86 86;" xml:space="preserve">
<style type="text/css">
	.st0{fill:#F2F4FF;}
	.st1{fill-rule:evenodd;clip-rule:evenodd;fill:none;stroke:#32459D;stroke-miterlimit:10;}
</style>
<g>
	<circle class="st0" cx="43" cy="43" r="43"/>
	<g id="Layer_9">
		<path class="st1" d="M34.5,43.8h8.6v-1.2h-8.6V43.8z M44.3,47.3H38v1.6h9.3l1.2-2.3h1.6l0.8-0.8v-1.9l1.6,0.4l1.2-1.2    c0.6,0.2,1.3,0.3,2,0.4c4.5,0,4.7-4.7,4.7-4.7c0-4.8-4.7-5.1-4.7-5.1c-2.3,0-4.3,1.4-5.1,3.5v2.7l-5.8,5.5L44.3,47.3z M54.6,36.8    c0.6,0,1,0.4,1,1s-0.4,1-1,1s-1-0.4-1-1S54,36.8,54.6,36.8z M56.7,45l0.4,1.9L45.8,58.2h-1.6l-16-15.6l0.4-1.6l10.2-10.5l1.2-0.8    l8.6,7.8H49v-1.2l0.8-1.2l-7.8-7l-4.3,0.4L26.4,40.7l0.8,3.5l16.8,16h2.7l11.7-11.7l1.2-2.3l-0.8-1.9L56.7,45z M45.8,38.3h-6.6    v1.2h6.6L45.8,38.3z"/>
	</g>
</g>
</svg>