<svg id="Layer_1" data-name="Layer 1" xmlns="http://www.w3.org/2000/svg" viewBox="0 0 86 86"><defs><style>.cls-1,.cls-2,.cls-4,.cls-6{fill:#f2f4ff;}.cls-2,.cls-4,.cls-5,.cls-6{stroke:#32459d;}.cls-2,.cls-3,.cls-4,.cls-5,.cls-6{stroke-miterlimit:10;}.cls-2{stroke-width:1.5px;}.cls-3{fill:#efefef;stroke:#0f2ddb;}.cls-3,.cls-4{stroke-width:0.75px;}.cls-5{fill:none;}</style></defs><title>Wireless</title><circle class="cls-1" cx="43" cy="43" r="43"/><circle class="cls-2" cx="41.98" cy="42.88" r="21.84"/><circle class="cls-2" cx="41.98" cy="42.88" r="18"/><path class="cls-3" d="M31,11.42H53a3.25,3.25,0,0,1,3,3.31V71.19s.35,3.8-3.4,3.8H32.21S28,75.55,28,70.84V15.17S27.87,11.42,31,11.42Z"/><rect class="cls-4" x="63.82" y="39.78" width="1.2" height="6.38"/><rect class="cls-4" x="65.03" y="40.57" width="1.2" height="4.67"/><rect class="cls-4" x="66.23" y="42.29" width="6.95" height="1.2"/><path class="cls-1" d="M31,11.42H53a3.25,3.25,0,0,1,3,3.31V71.19s.35,3.8-3.4,3.8H32.21S28,75.55,28,70.84V15.17S27.87,11.42,31,11.42Z"/><path class="cls-5" d="M31.79,75.39a4.33,4.33,0,0,1-2.81-1,4.53,4.53,0,0,1-1.36-3.58V15.17a5,5,0,0,1,1.11-3.23A3,3,0,0,1,31,11.05H53a3.61,3.61,0,0,1,3.37,3.69V71.19a4.43,4.43,0,0,1-1,3.09,3.64,3.64,0,0,1-2.81,1.08H32.21A1.8,1.8,0,0,1,31.79,75.39ZM53,11.79H31a2.31,2.31,0,0,0-1.73.66,4.25,4.25,0,0,0-.9,2.7V70.84a3.81,3.81,0,0,0,1.1,3,3.81,3.81,0,0,0,2.69.77H52.6a2.94,2.94,0,0,0,2.25-.83,3.8,3.8,0,0,0,.78-2.56V14.73A2.88,2.88,0,0,0,53,11.79Z"/><rect class="cls-6" x="35.19" y="12.28" width="13.78" height="1.29" rx="0.64"/><polygon class="cls-2" points="35.52 55.11 49.46 41.17 43 41.17 49.85 30.74 33.6 44.12 41.01 43.72 35.52 55.11"/></svg>