<svg xmlns="http://www.w3.org/2000/svg" version="1.1" xmlns:xlink="http://www.w3.org/1999/xlink" xmlns:svgjs="http://svgjs.dev/svgjs" width="1000" height="1000" viewBox="0 0 1000 1000"><rect width="1000" height="1000" fill="#ffffff"></rect><g transform="matrix(0.7,0,0,0.7,149.57575901712903,440.4743056364749)"><svg viewBox="0 0 396 67" data-background-color="#ffffff" preserveAspectRatio="xMidYMid meet" height="169" width="1000" xmlns="http://www.w3.org/2000/svg" xmlns:xlink="http://www.w3.org/1999/xlink"><g id="tight-bounds" transform="matrix(1,0,0,1,0.23999940389592211,0.2127770664794184)"><svg viewBox="0 0 395.52 66.57444590599583" height="66.57444590599583" width="395.52"><g><svg viewBox="0 0 492.5985034808466 82.91482712216859" height="66.57444590599583" width="395.52"><g transform="matrix(1,0,0,1,97.07850348084665,11.459285079836615)"><svg viewBox="0 0 395.52 59.99625696249536" height="59.99625696249536" width="395.52"><g><svg viewBox="0 0 395.52 59.99625696249536" height="59.99625696249536" width="395.52"><g><svg viewBox="0 0 395.52 59.99625696249536" height="59.99625696249536" width="395.52"><g transform="matrix(1,0,0,1,0,0)"><svg width="395.52" viewBox="0.3500000238418579 -37.95000076293945 269.2799987792969 40.85000228881836" height="59.99625696249536" data-palette-color="#010c80"><path d="M41.3-36.1L47-36.1Q45.2-31.35 43.18-26.13 41.15-20.9 39.18-15.85 37.2-10.8 35.45-6.25 33.7-1.7 32.5 1.6L32.5 1.6 24.4-18.65Q24.25-19.05 24.15-19.25 24.05-19.45 23.95-19.85L23.95-19.85Q23.95-19.65 23.9-19.48 23.85-19.3 23.8-19.1L23.8-19.1Q23.75-18.9 23.7-18.7L23.7-18.7Q22-14.8 20.35-11.05L20.35-11.05Q19.65-9.45 18.9-7.75 18.15-6.05 17.45-4.38 16.75-2.7 16.07-1.15 15.4 0.4 14.85 1.65L14.85 1.65Q11.25-7.8 7.6-17.2 3.95-26.6 0.35-36.1L0.35-36.1 6.5-36.1Q7.7-32.8 8.97-29.45 10.25-26.1 11.38-23 12.5-19.9 13.4-17.25 14.3-14.6 14.8-12.75L14.8-12.75 15.2-11Q15.25-11.25 15.45-11.83 15.65-12.4 15.75-12.65L15.75-12.65Q15.8-12.85 16.1-13.55 16.4-14.25 16.8-15.23 17.2-16.2 17.7-17.35 18.2-18.5 18.7-19.7L18.7-19.7Q19.9-22.45 21.35-25.8L21.35-25.8Q20.5-28.15 19.85-30.2L19.85-30.2Q19.25-31.95 18.73-33.65 18.2-35.35 17.95-36.1L17.95-36.1 23.2-36.1Q25.35-30.45 27.2-25.65L27.2-25.65Q27.95-23.6 28.73-21.55 29.5-19.5 30.18-17.75 30.85-16 31.35-14.68 31.85-13.35 32.05-12.75L32.05-12.75Q32.2-12.3 32.27-11.88 32.35-11.45 32.45-11L32.45-11Q32.55-11.45 32.63-11.9 32.7-12.35 32.8-12.75L32.8-12.75Q33.25-14.7 34.2-17.4 35.15-20.1 36.33-23.2 37.5-26.3 38.8-29.63 40.1-32.95 41.3-36.1L41.3-36.1ZM57.35 0L51.85 0 51.85-36.25 61.75-36.25Q64.6-36.25 66.97-35.5 69.35-34.75 71.07-33.27 72.8-31.8 73.75-29.68 74.7-27.55 74.7-24.8L74.7-24.8Q74.7-23.3 74.4-21.83 74.1-20.35 73.42-18.98 72.75-17.6 71.7-16.43 70.65-15.25 69.15-14.45L69.15-14.45Q71.15-11.3 73.5-7.48 75.85-3.65 78.25 0L78.25 0 71.7 0Q70.7-1.55 69.62-3.25 68.55-4.95 67.47-6.63 66.4-8.3 65.37-9.93 64.35-11.55 63.45-12.95L63.45-12.95 62.45-12.95 57.35-12.95 57.35 0ZM57.35-31.15L57.35-18.1 62.3-18.1Q64.3-18.1 65.65-18.78 67-19.45 67.77-20.45 68.55-21.45 68.87-22.6 69.2-23.75 69.2-24.7L69.2-24.7Q69.2-25.65 68.87-26.78 68.55-27.9 67.75-28.88 66.95-29.85 65.62-30.5 64.3-31.15 62.35-31.15L62.35-31.15 57.35-31.15ZM111.1 0L105.7 0Q105.45-0.55 105-1.6 104.55-2.65 103.97-4.03 103.4-5.4 102.72-7.03 102.05-8.65 101.35-10.4L101.35-10.4 88.55-10.4 84.25 0 78.85 0 95-37.95Q95.3-37.25 96.07-35.4 96.85-33.55 97.92-30.98 99-28.4 100.32-25.28 101.65-22.15 103.02-18.95 104.4-15.75 105.72-12.65 107.05-9.55 108.15-6.95 109.25-4.35 110.02-2.53 110.8-0.7 111.1 0L111.1 0ZM94.45-24.7L90.45-15 99.5-15Q98.8-16.65 98.17-18.18 97.55-19.7 97.02-20.98 96.5-22.25 96.1-23.2 95.7-24.15 95.5-24.7L95.5-24.7Q95.45-24.8 95.27-25.4 95.1-26 95-26.5L95-26.5Q94.9-26 94.7-25.4 94.5-24.8 94.45-24.7L94.45-24.7ZM121.09-31.15L121.09-18.1 126.04-18.1Q128.04-18.1 129.39-18.8 130.74-19.5 131.52-20.5 132.29-21.5 132.62-22.65 132.94-23.8 132.94-24.7L132.94-24.7Q132.94-25.65 132.62-26.78 132.29-27.9 131.49-28.88 130.69-29.85 129.37-30.5 128.04-31.15 126.09-31.15L126.09-31.15 121.09-31.15ZM121.09 0L115.59 0 115.59-36.25 125.49-36.25Q128.34-36.25 130.72-35.5 133.09-34.75 134.82-33.27 136.54-31.8 137.49-29.68 138.44-27.55 138.44-24.8L138.44-24.8Q138.44-22.65 137.79-20.53 137.14-18.4 135.69-16.73 134.24-15.05 131.89-14 129.54-12.95 126.19-12.95L126.19-12.95 121.09-12.95 121.09 0ZM172.69 0L165.94 0Q164.19-2.25 162.59-4.3 160.99-6.35 159.44-8.4 157.89-10.45 156.31-12.55 154.74-14.65 152.99-16.9L152.99-16.9Q152.34-16.2 151.74-15.63 151.14-15.05 150.44-14.45L150.44-14.45Q150.44-10.6 150.47-7.23 150.49-3.85 150.49 0L150.49 0 144.44 0 144.44-36.25 150.49-36.25 150.49-22.7Q150.49-22.25 150.42-21.83 150.34-21.4 150.34-20.95L150.34-20.95Q150.59-21.3 150.84-21.58 151.09-21.85 151.34-22.25L151.34-22.25Q154.89-25.6 158.19-29.23 161.49-32.85 165.04-36.25L165.04-36.25 171.99-36.25Q168.24-32.35 164.56-28.4 160.89-24.45 157.14-20.55L157.14-20.55Q159.24-17.85 161.17-15.33 163.09-12.8 164.97-10.3 166.84-7.8 168.74-5.25 170.64-2.7 172.69 0L172.69 0ZM176.79 0L176.79-36.25 182.24-36.25 182.24 0 176.79 0ZM188.69-36.25L212.24-36.25 212.24-31.05 203.09-31.05 203.09 0 197.63 0 197.63-31.05 188.69-31.05 188.69-36.25ZM212.38 0L212.38 0Q212.38-1.2 213.23-2.05 214.08-2.9 215.28-2.9L215.28-2.9Q216.48-2.9 217.33-2.05 218.18-1.2 218.18 0L218.18 0Q218.18 1.2 217.33 2.05 216.48 2.9 215.28 2.9L215.28 2.9Q214.08 2.9 213.23 2.05 212.38 1.2 212.38 0ZM223.48 0L223.48-36.25 228.93-36.25 228.93 0 223.48 0ZM264.18-36.25L269.63-36.25 269.63 1.65Q268.93 0.75 266.93-1.25 264.93-3.25 262.33-5.85 259.73-8.45 256.8-11.3 253.88-14.15 251.28-16.73 248.68-19.3 246.73-21.33 244.78-23.35 244.13-24.2L244.13-24.2 243.18-25.5 243.33-23.9 243.33 0 237.83 0 237.83-37.95Q238.38-37.25 239.65-35.95 240.93-34.65 242.65-32.93 244.38-31.2 246.45-29.2 248.53-27.2 250.65-25.15 252.78-23.1 254.85-21.13 256.93-19.15 258.65-17.45 260.38-15.75 261.63-14.45 262.88-13.15 263.38-12.5L263.38-12.5 264.33-11.1 264.18-12.8 264.18-36.25Z" opacity="1" transform="matrix(1,0,0,1,0,0)" fill="#010c80" class="undefined-text-0" data-fill-palette-color="primary" id="text-0"></path></svg></g></svg></g></svg></g></svg></g><g><svg viewBox="0 0 82.91482712216859 82.91482712216859" height="82.91482712216859" width="82.91482712216859"><g><svg xmlns="http://www.w3.org/2000/svg" xmlns:xlink="http://www.w3.org/1999/xlink" version="1.1" viewBox="3.996000289916992 3.996000051498413 88.01200103759766 88.01200103759766" x="0" y="0" height="82.91482712216859" width="82.91482712216859" class="icon-icon-0" data-fill-palette-color="accent" id="icon-0"><path d="M73.24 48.24c-0.508 0-1.024-0.196-1.416-0.584-0.78-0.78-0.78-2.048 0-2.828l12.928-12.924c0.796-0.792 1.244-1.864 1.244-2.984 0-1.124-0.436-2.196-1.244-2.992l-14.68-14.688c-1.648-1.64-4.336-1.648-5.984 0l-12.46 12.456c-0.78 0.78-2.048 0.78-2.828 0-0.78-0.776-0.78-2.048 0-2.828l12.46-12.456c3.216-3.212 8.432-3.208 11.64 0l14.68 14.688c1.556 1.56 2.416 3.616 2.416 5.82 0 2.2-0.86 4.256-2.416 5.812l-12.928 12.924c-0.392 0.388-0.904 0.584-1.412 0.584z" fill="#0023ff" data-fill-palette-color="accent"></path><path d="M28.912 89.992c-2.1 0-4.22-0.8-5.82-2.412l-14.68-14.68c-1.56-1.564-2.416-3.624-2.416-5.82 0-2.204 0.86-4.26 2.416-5.82l12.748-12.748c0.776-0.78 2.048-0.78 2.828 0 0.776 0.78 0.776 2.048 0 2.828l-12.748 12.748c-0.796 0.796-1.244 1.868-1.244 2.992 0 1.12 0.436 2.192 1.244 2.992l14.68 14.68c1.648 1.64 4.336 1.656 5.984 0l13.252-13.244c0.772-0.78 2.048-0.78 2.828 0 0.772 0.78 0.772 2.048 0 2.828l-13.252 13.244c-1.608 1.612-3.716 2.412-5.82 2.412z" fill="#0023ff" data-fill-palette-color="accent"></path><path d="M28.912 7.996c1.592 0 3.188 0.608 4.416 1.824l52.848 52.86c2.428 2.432 2.428 6.372 0 8.808l-14.68 14.684c-1.228 1.216-2.812 1.824-4.416 1.824-1.588 0-3.188-0.608-4.408-1.824l-52.848-52.86c-2.436-2.432-2.436-6.38 0-8.808l14.68-14.684c1.22-1.216 2.812-1.824 4.408-1.824zM28.912 3.996c-2.736 0-5.296 1.064-7.236 2.996l-14.68 14.684c-1.928 1.928-3 4.5-3 7.236 0 2.74 1.072 5.3 3 7.244l52.852 52.856c1.936 1.932 4.504 2.996 7.236 2.996 2.744 0 5.304-1.064 7.244-2.996l14.68-14.684c1.928-1.924 3-4.504 3-7.236 0-2.74-1.072-5.3-3-7.244l-52.856-52.856c-1.944-1.932-4.512-2.996-7.24-2.996v0z" fill="#0023ff" data-fill-palette-color="accent"></path><path d="M34.776 39.436c-1.064 0-2.12 0.408-2.928 1.216-1.624 1.624-1.616 4.252 0 5.876 0.808 0.812 1.876 1.22 2.928 1.22 1.064 0 2.132-0.408 2.936-1.22 1.616-1.624 1.616-4.252 0-5.876-0.8-0.808-1.868-1.216-2.936-1.216v0z" fill="#0023ff" data-fill-palette-color="accent"></path><path d="M43.588 30.628c-1.072 0-2.124 0.408-2.932 1.22-1.62 1.616-1.62 4.252 0 5.872 0.808 0.808 1.872 1.216 2.932 1.216s2.124-0.408 2.928-1.216c1.62-1.62 1.62-4.252 0-5.872-0.8-0.812-1.864-1.22-2.928-1.22v0z" fill="#0023ff" data-fill-palette-color="accent"></path><path d="M43.588 48.248c-1.072 0-2.124 0.416-2.932 1.228-1.62 1.616-1.62 4.252 0 5.872 0.812 0.812 1.876 1.22 2.932 1.22 1.064 0 2.124-0.408 2.928-1.22 1.62-1.62 1.62-4.252 0-5.872-0.8-0.824-1.864-1.228-2.928-1.228v0z" fill="#0023ff" data-fill-palette-color="accent"></path><path d="M52.404 39.436c-1.068 0-2.124 0.408-2.928 1.216-1.62 1.624-1.62 4.252 0 5.876 0.804 0.812 1.876 1.22 2.928 1.22 1.068 0 2.124-0.408 2.932-1.22 1.62-1.624 1.62-4.252 0-5.876-0.812-0.808-1.876-1.216-2.932-1.216v0z" fill="#0023ff" data-fill-palette-color="accent"></path><path d="M52.404 57.06c-1.064 0-2.124 0.416-2.928 1.224-1.62 1.612-1.62 4.252 0 5.872 0.804 0.812 1.876 1.22 2.928 1.22 1.068 0 2.124-0.408 2.932-1.22 1.62-1.62 1.62-4.252 0-5.872-0.808-0.82-1.872-1.224-2.932-1.224v0z" fill="#0023ff" data-fill-palette-color="accent"></path><path d="M61.216 48.248c-1.068 0-2.132 0.416-2.936 1.228-1.616 1.616-1.616 4.252 0 5.872 0.812 0.812 1.88 1.22 2.936 1.22s2.12-0.408 2.928-1.22c1.624-1.62 1.616-4.252 0-5.872-0.808-0.824-1.876-1.228-2.928-1.228v0z" fill="#0023ff" data-fill-palette-color="accent"></path></svg></g></svg></g></svg></g><defs></defs></svg><rect width="395.52" height="66.57444590599583" fill="none" stroke="none" visibility="hidden"></rect></g></svg></g></svg>