<?xml version="1.0" encoding="UTF-8"?>
<!-- Generator: Adobe Illustrator 26.0.3, SVG Export Plug-In . SVG Version: 6.00 Build 0)  -->
<svg version="1.1" id="Calque_1" xmlns="http://www.w3.org/2000/svg" xmlns:xlink="http://www.w3.org/1999/xlink" x="0px" y="0px" viewBox="0 0 23 6" style="enable-background:new 0 0 23 6;" xml:space="preserve">
<style type="text/css">
	.st0{fill:#F99B86;}
</style>
<path class="st0" d="M11.3,2.2C11.3,2.2,11.3,2.2,11.3,2.2c-1.6,1.1-6.5,2.5-10.7,0C0.3,2.1,0.2,2,0,1.9v2.3c1.9,1,3.9,1.4,5.8,1.4  c2.9,0,5.4-0.9,6.6-1.7c0,0,0,0,0,0c0,0,0,0,0,0c1.7-1.1,5.9-2.5,10.1,0C22.7,4,22.9,4.1,23,4.2V1.9C18.1-0.8,13.2,0.9,11.3,2.2z"/>
</svg>